<?xml version="1.0" encoding="UTF-8" standalone="no"?>
<svg
   width="1024"
   height="1024"
   version="1.1"
   id="svg145"
   sodipodi:docname="green-on-black-advanced-alien-technology.svg"
   inkscape:version="1.4.2 (f4327f4, 2025-05-13)"
   xmlns:inkscape="http://www.inkscape.org/namespaces/inkscape"
   xmlns:sodipodi="http://sodipodi.sourceforge.net/DTD/sodipodi-0.dtd"
   xmlns="http://www.w3.org/2000/svg"
   xmlns:svg="http://www.w3.org/2000/svg">
  <defs
     id="defs145" />
  <sodipodi:namedview
     id="namedview145"
     pagecolor="#ffffff"
     bordercolor="#000000"
     borderopacity="0.25"
     inkscape:showpageshadow="2"
     inkscape:pageopacity="0.0"
     inkscape:pagecheckerboard="0"
     inkscape:deskcolor="#d1d1d1"
     inkscape:zoom="0.51306674"
     inkscape:cx="281.63977"
     inkscape:cy="462.90274"
     inkscape:window-width="1680"
     inkscape:window-height="987"
     inkscape:window-x="-8"
     inkscape:window-y="-8"
     inkscape:window-maximized="1"
     inkscape:current-layer="svg145" />
  <path
     fill="#252525"
     d="M 0,0 H 1024 V 1024 H 0 Z"
     id="path1"
     style="display:inline;fill:#000000;fill-opacity:1" />
  <g
     id="g145">
    <path
       fill="#9AFE8F"
       d="M630.853 87.224C656.607 86.4905 683.13 88.0586 708.755 90.6637C721.626 91.9722 734.446 93.8582 747.309 95.2803C772.025 128.642 798.658 160.54 827.073 190.815C847.578 212.398 869.359 232.868 891.29 252.991C897.746 258.914 904.525 264.444 911.086 270.243C918.022 276.373 924.717 282.778 931.766 288.781C937.96 294.056 944.982 298.771 950.758 304.463C950.913 304.615 951.064 304.77 951.216 304.924C953.852 313.174 954.961 322.527 956.258 331.08C961.675 366.805 963.25 403.432 962.497 439.555C961.063 508.411 945.975 583.311 909.788 642.638C902.585 654.447 895.073 665.919 885.037 675.557C884.972 668.743 884.473 662.075 882.994 655.408C874.83 618.603 846.921 577.107 825.551 546.469C812.205 528.049 798.544 509.192 784.086 491.647C760.192 462.654 734.115 435.267 707.762 408.522C698.777 399.402 689.989 390.105 680.851 381.134C661.151 361.544 640.789 342.632 619.798 324.432C606.647 313.091 593.034 302.321 579.527 291.413C538.024 257.898 495.061 226.442 447.794 201.448C428.938 191.476 408.264 181.42 387.263 177.013C379.682 175.422 372.334 175.389 364.637 175.46L365.308 174.732C414.493 121.582 503.186 98.8681 572.497 91.0016C591.86 88.804 611.388 87.965 630.853 87.224Z"
       id="path2"
       style="fill:#00a000;fill-opacity:1" />
    <path
       fill="#252525"
       d="M622.501 97.2203C640.998 96.6169 659.897 98.061 678.367 99.1562C699.431 100.405 720.456 101.522 741.499 103.115C752.053 117.717 762.588 132.346 774.481 145.911C749.026 146.742 722.928 151.962 698.37 158.536C641.545 173.747 586.135 197.77 543.41 239.338L547.756 242.681C553.25 236.234 560.269 230.908 566.848 225.614C611.608 189.595 669.447 168.463 725.234 157.045C736.171 154.806 747.253 153.409 758.331 152.088C764.369 151.368 771.187 151.164 777.033 149.5C777.193 149.455 777.352 149.404 777.511 149.356C790.016 167.147 810.82 189.976 826.827 205.166C818.934 216.319 808.427 226.954 799.427 237.297C787.377 250.955 774.142 263.843 761.283 276.736C733.482 304.744 704.604 331.662 674.716 357.43C653.322 338.491 632.721 318.624 611.154 299.865C600.118 290.405 588.872 281.193 577.424 272.235C533.977 237.542 488.416 205.894 437.935 182.23C427.032 177.119 400.48 165.873 389.392 164.613C398.009 158.858 406.363 152.873 415.397 147.759C463.97 120.263 520.695 105.546 575.962 99.961C591.424 98.3986 606.98 97.8712 622.501 97.2203Z"
       id="path3"
       style="fill:#000000;fill-opacity:1" />
    <path
       fill="#9AFE8F"
       d="M670.706 199.187C670.857 199.165 671.007 199.135 671.159 199.121C688.36 197.448 707.028 201.821 720.769 212.494C729.9 219.586 736.41 230.194 737.728 241.769C739.202 254.724 734.732 267.11 726.621 277.155C714.544 292.112 696.934 299.223 678.234 301.309C678.199 301.314 678.164 301.321 678.129 301.324C661.094 302.645 642.511 298.442 628.81 287.915C619.594 280.834 612.864 270.844 611.461 259.151C609.986 246.854 614.244 235.04 621.839 225.443C633.963 210.126 651.539 201.52 670.706 199.187Z"
       id="path4"
       style="fill:#00a000;fill-opacity:1" />
    <path
       fill="#252525"
       d="M670.759 205.191C670.864 205.176 670.97 205.156 671.076 205.147C686.704 203.768 704.098 206.738 716.61 216.704C724.584 223.055 729.828 232.055 730.849 242.254C731.945 253.214 727.662 265.79 720.612 274.178C709.551 287.339 693.229 292.802 676.622 294.269C662.178 295.969 644.848 291.456 633.359 282.485C624.824 275.82 617.991 265.738 616.741 254.807C615.602 244.841 619.753 235.335 625.935 227.72C636.735 214.417 654.017 206.975 670.759 205.191Z"
       id="path5"
       style="fill:#000000;fill-opacity:1" />
    <path
       fill="#9AFE8F"
       d="M675.429 210.704C685.659 210.366 711.569 215.239 719.319 221.573C723.661 225.121 726.35 231.784 726.922 237.238C727.851 246.091 723.815 254.851 718.232 261.509C707.585 274.208 690.332 281.258 674.122 282.719C673.833 282.766 673.545 282.823 673.255 282.858C660.137 284.461 643.935 281.308 633.6 272.707C627.726 267.82 623.757 260.74 623.216 253.058C622.609 244.44 626.798 236.442 632.371 230.164C643.328 217.823 659.228 211.757 675.429 210.704Z"
       id="path6"
       style="fill:#00a000;fill-opacity:1" />
    <path
       fill="#252525"
       d="M705.014 217.895C708.46 218.763 710.977 220.594 713.5 223.032C718.394 227.762 721.844 234.197 721.795 241.131C721.736 249.472 716.941 257.034 711.165 262.711C699.673 274.007 682.624 279.234 666.751 279.059C654.103 278.92 642.344 275.815 633.357 266.581C630.335 262.532 628.572 259.131 627.08 254.292C629.85 257.139 632.217 260.37 635.177 263.023C644.129 271.044 658.193 272.923 669.74 272.148C683.06 271.254 696.305 266.765 705.266 256.438C711.688 249.037 715.287 238.545 710.36 229.311C708.946 226.661 704.966 221.729 704.973 218.754C704.973 218.467 705 218.181 705.014 217.895Z"
       id="path7"
       style="fill:#000000;fill-opacity:1" />
    <path
       fill="#9AFE8F"
       d="M559.931 111.695C574.128 110.297 590.511 112.119 602.682 120.137C610.402 125.223 617.323 132.578 619.052 141.945C620.807 151.446 617.401 160.675 611.983 168.382C599.467 186.185 577.286 196.285 556.41 199.976L555.597 200.126C540.258 202.804 519.539 201.303 506.55 191.834C501.156 187.903 497.474 182.407 496.563 175.725C494.994 164.219 501.12 144.341 508.178 135.177C519.688 120.231 542.092 113.922 559.931 111.695Z"
       id="path8"
       style="fill:#00a000;fill-opacity:1" />
    <path
       fill="#252525"
       d="M562.616 117.21C575.759 116.297 591.18 118.301 602.11 126.21C607.543 130.141 611.999 135.683 612.987 142.491C614.2 150.85 609.84 160.147 604.792 166.597C592.843 181.865 570.387 191.555 551.554 193.91C550.701 194.049 549.844 194.166 548.985 194.262C536.039 195.695 520.54 193.731 510.156 185.256C504.113 180.324 500.312 173.516 499.615 165.709C498.773 156.262 503.262 147.469 509.309 140.519C522.412 125.456 543.179 118.532 562.616 117.21Z"
       id="path9"
       style="fill:#000000;fill-opacity:1" />
    <path
       fill="#9AFE8F"
       d="M560.485 122.701C569.147 121.672 578.924 122.732 587.326 124.947C593.797 126.654 601.494 129.474 604.9 135.685C606.916 139.36 606.7 143.467 605.531 147.383C602.152 158.694 591.715 166.92 581.692 172.211C564.257 181.415 541.41 186.578 522.136 180.513C515.988 178.579 508.818 175.457 505.87 169.335C503.333 164.069 504.911 158.896 506.773 153.747C506.967 155.046 507.183 156.341 507.42 157.632C508.692 164.378 512.928 170.365 518.64 174.119C529.77 181.433 545.528 179.817 557.892 177.4C559.744 177.049 561.584 176.546 563.402 176.05C576.189 172.562 592.166 163.904 598.773 151.866C600.465 148.783 601.258 145.362 600.095 141.948C598.34 136.802 592.75 133.021 587.993 130.864C588.687 136.692 588.893 141.228 585.658 146.457C578.361 158.252 562.696 164.83 549.737 167.711C539.229 170.047 525.189 170.913 515.777 164.691C511.072 161.58 509.257 157.988 508.274 152.659C509.511 149.667 511.416 146.888 513.429 144.362C524.268 130.764 543.804 124.479 560.485 122.701Z"
       id="path10"
       style="fill:#00a000;fill-opacity:1" />
    <path
       fill="#9AFE8F"
       d="M648.239 103.526C656.962 103.452 665.794 104.413 674.5 104.988C687.529 105.77 700.551 106.656 713.566 107.644C711.254 110.674 708.489 112.822 705.418 115.017C701.434 117.237 697.193 118.963 692.791 120.156C681.793 123.144 668.363 122.723 658.351 116.785C652.955 113.584 649.79 109.591 648.239 103.526Z"
       id="path11"
       style="fill:#00a000;fill-opacity:1" />
    <path
       fill="#9AFE8F"
       d="M722.388 107.394C724.274 107.504 725.562 107.527 726.9 108.976C727.191 110.664 726.747 111.964 726.151 113.527C722.235 123.797 713.194 131.732 703.316 136.148C689.854 142.165 671.992 143.331 658.15 137.921C650.428 134.903 644.619 129.863 641.295 122.186C640.203 117.586 640.605 114.166 641.478 109.58C642.052 111.748 642.608 113.972 643.461 116.049C646.376 123.146 652.651 128.416 659.653 131.244C671.95 136.211 687.964 135.381 700.061 130.2C710.885 125.565 718.088 118.316 722.388 107.394Z"
       id="path12"
       style="fill:#00a000;fill-opacity:1" />
    <path
       fill="#252525"
       d="M830.313 209.555C837.166 214.445 845.116 224.32 851.597 230.412C866.566 244.482 882.51 257.675 897.173 272.021C887.688 335.44 867.995 408.704 830.118 461.532C821.324 473.798 810.861 484.76 800.472 495.664C792.407 485.511 783.862 475.784 775.502 465.877C767.178 456.482 759.338 446.657 750.977 437.284C727.506 410.921 702.986 385.509 677.478 361.11C699.315 343.775 719.535 324.658 739.679 305.427C766.585 279.739 793.561 253.338 817.816 225.11C822.148 220.069 826.118 214.711 830.313 209.555Z"
       id="path13"
       style="fill:#000000;fill-opacity:1" />
    <path
       fill="#9AFE8F"
       d="M794.025 305.699C794.577 305.648 795.13 305.591 795.684 305.57C806.203 305.169 815.967 309.577 823.462 316.757C836.923 329.65 843.744 350.434 844.026 368.75C844.329 388.485 838.134 409.057 824.069 423.374C815.874 431.716 805.453 436.221 793.756 436.298C783.544 435.729 773.797 432.744 765.703 426.354C752.338 415.803 744.744 398.311 742.783 381.712C740.523 362.588 744.85 341.736 757.057 326.458C766.487 314.656 778.999 307.285 794.025 305.699Z"
       id="path14"
       style="fill:#00a000;fill-opacity:1" />
    <path
       fill="#252525"
       d="M799.24 322.646C808.508 322.236 818.16 325.798 825.018 332.052C834.217 340.442 837.644 355.535 838.178 367.492C838.792 381.279 835.943 399.164 826.122 409.615C820.39 415.716 813.306 418.084 805.172 418.425C797.897 417.812 791.403 416.117 785.439 411.741C774.556 403.757 767.844 391.104 765.854 377.9C763.579 363.398 767.2 348.59 775.91 336.774C781.887 328.804 789.356 324.073 799.24 322.646Z"
       id="path15"
       style="fill:#000000;fill-opacity:1" />
    <path
       fill="#9AFE8F"
       d="M805.622 329.6C806.236 329.556 806.851 329.519 807.468 329.527C812.301 329.586 817.064 332.526 820.239 335.998C829.005 345.583 831.386 361.447 831.003 373.928C830.614 386.619 826.838 398.706 817.271 407.498C812.248 412.114 806.971 414.226 800.184 413.897C796.403 413.127 792.85 411.938 789.59 409.847C781.246 404.494 776.141 395.006 774.205 385.469C771.38 371.557 774.687 356.976 782.59 345.265C788.205 336.945 795.736 331.578 805.622 329.6Z"
       id="path16"
       style="fill:#00a000;fill-opacity:1" />
    <path
       fill="#252525"
       d="M792.198 312.632C794.689 312.363 797.196 312.278 799.699 312.378C810.153 312.786 816.679 318.463 823.442 325.702C816.693 321.28 810.036 317.599 801.697 317.741C792.193 317.903 783.317 322.338 776.814 329.141C766.125 340.323 760.741 356.168 761.104 371.5C761.448 386.518 767.762 400.781 778.649 411.131C786.581 418.656 795.997 422.587 806.956 422.325C813.129 421.596 817.793 418.821 823.015 415.65C817.168 421.925 809.207 426.776 800.744 428.457C790.931 430.407 780.66 427.773 772.494 422.147C760.213 413.684 753.233 399.926 750.591 385.545C747.186 367.005 750.117 348.743 761.005 333.127C768.713 322.071 778.905 315.017 792.198 312.632Z"
       id="path17"
       style="fill:#000000;fill-opacity:1" />
    <path
       fill="#252525"
       d="M902.237 276.181C907.483 280.085 912.4 284.745 917.417 288.963C925.906 295.992 934.336 303.094 942.704 310.266C942.824 310.687 942.934 311.109 943.035 311.535C949.948 340.049 951.531 370.167 952.34 399.406C952.985 422.752 953.03 446.026 951.197 469.327C947.651 514.403 936.331 567.038 917.33 608.163C910.238 623.514 901.265 637.976 892.379 652.332C890.286 641.948 886.992 632.542 882.75 622.858C870.075 595.373 854.307 570.482 837.219 545.616C831.626 537.477 826.155 529.18 820.292 521.235C814.808 513.803 808.83 506.736 803.28 499.35C862.747 445.33 889.577 353.147 902.237 276.181Z"
       id="path18"
       style="fill:#000000;fill-opacity:1" />
    <path
       fill="#9AFE8F"
       d="M903.261 428.662C906.751 428.445 910.266 428.637 913.653 429.561C921.363 431.663 925.671 436.731 929.559 443.303C923.331 438.857 916.836 435.887 909.107 435.421C899.438 434.838 890.556 439.363 883.481 445.639C870.037 457.567 861.604 478.525 860.62 496.254C859.877 509.629 862.488 523.763 871.744 533.966C876.843 539.587 882.894 543.257 890.647 543.5C892.359 543.554 895.489 543.676 896.787 542.442C896.129 542.188 895.472 541.921 894.81 541.68C887.162 538.901 881.237 532.464 877.582 525.296C870.009 510.448 871.684 491.416 876.682 476.04C880.777 463.442 889.697 449.291 902.002 443.346C907.668 440.609 914.423 440.042 920.359 442.277C927.936 445.131 933.053 452.43 936.095 459.642C943.021 476.065 940.707 495.057 934.027 511.151C929.827 521.27 922.956 530.881 912.415 534.995C907.886 536.763 902.974 537.232 898.459 535.181C892.441 532.448 888.269 526.502 885.918 520.493C880.312 506.168 882.7 489.481 888.682 475.704C891.452 470.04 895.307 464.26 899.816 459.822C903.351 456.342 907.855 453.534 912.991 453.747C917.006 453.913 920.503 455.941 923.113 458.92C929.366 466.056 930.244 477.079 929.589 486.111C928.482 501.381 921.56 517.842 909.826 527.899C913.707 526.62 917.056 525.301 920.23 522.594C929.414 514.763 933.612 499.838 934.664 488.259C935.731 476.525 934.46 462.472 926.34 453.209C922.88 449.262 918.479 446.968 913.221 446.637C905.984 446.18 899.784 449.49 894.623 454.282C881.851 466.14 876.28 483.144 875.713 500.232C875.326 511.877 878.246 524.199 886.487 532.817C892.77 539.388 899.351 541.837 908.384 541.973C903.657 545.969 899.128 548.914 892.808 549.78C885.274 550.78 877.653 548.739 871.628 544.107C861.955 536.748 857.188 523.627 855.612 511.984C852.646 490.086 859.576 464.711 873.031 447.194C880.584 437.36 890.813 430.305 903.261 428.662Z"
       id="path19"
       style="fill:#00a000;fill-opacity:1" />
    <path
       fill="#9AFE8F"
       d="M930.29 329.08C931.107 329.167 931.956 329.254 932.746 329.486C936.285 330.527 938.855 334.592 940.244 337.748C945.211 349.033 945.612 367.256 940.75 378.623C938.52 383.836 935.652 386.224 930.567 388.265C929.126 388.372 927.973 388.352 926.673 387.683C922.987 385.785 921.089 381.529 919.886 377.777C915.939 365.465 915.084 348.084 921.485 336.399C923.664 332.421 925.989 330.399 930.29 329.08Z"
       id="path20"
       style="fill:#00a000;fill-opacity:1" />
    <path
       fill="#9AFE8F"
       d="M920.954 319.571C922.62 319.491 924.3 319.387 925.947 319.718C928.22 320.175 932.54 321.251 933.709 323.333C934.084 324 933.932 323.872 933.678 324.682C929.018 323.107 924.314 322.777 919.737 324.899C913.913 327.6 910.42 333.122 908.201 338.918C903.163 352.081 903.301 369.362 909.213 382.228C911.642 387.513 915.341 392.797 921.093 394.707C926.079 396.364 930.259 394.852 934.657 392.54C935.69 391.809 936.458 391.183 937.762 391.05C937.958 392.157 938.075 391.752 937.608 392.642C935.881 395.934 931.34 398.559 927.89 399.567C923.68 400.796 919.359 400.179 915.578 397.997C907.611 393.397 902.757 383.012 900.651 374.392C897.273 360.572 899.031 342.333 906.681 330.126C910.116 324.648 914.627 321.037 920.954 319.571Z"
       id="path21"
       style="fill:#00a000;fill-opacity:1" />
    <path
       fill="#9AFE8F"
       d="M365.355 181.626C366.383 181.517 367.414 181.432 368.446 181.372C382.561 180.595 398.117 186.577 411.086 191.738C442.087 204.074 470.849 221.129 498.607 239.477C544.824 270.508 588.67 304.931 629.783 342.464C662.45 371.873 693.828 402.684 723.828 434.81C743.043 455.064 762.259 475.528 780.002 497.097C789.206 508.285 797.76 520.125 806.49 531.688C828.404 560.713 849.692 591.357 864.923 624.505C870.844 637.392 878.41 654.802 879.011 669.027C879.165 672.678 878.601 676.743 875.945 679.477C872.289 683.239 866.4 683.991 861.403 683.906C846.616 683.655 831.534 678.22 818.119 672.297C802.6 665.445 788.143 656.938 773.714 648.07C749.05 633.154 725.397 616.626 702.912 598.592C693.747 591.324 684.269 584.14 676.127 575.715L687.12 556.27C704.084 575.747 728.481 592.608 749.588 607.446C775.701 625.804 808.346 649.241 838.866 658.753C841.104 659.315 843.385 659.541 845.671 659.821C847.836 658.939 850.298 658.093 851.417 655.899C852.101 644.15 823.279 597.28 816.198 586.25C785.756 538.831 749.147 496.023 710.304 455.313C702.99 447.646 695.348 440.293 687.955 432.703C673.535 417.899 659.114 402.91 644.223 388.586C609.114 354.949 572.308 323.13 533.948 293.252C502.891 269.062 471.602 246.24 436.786 227.608C426.461 222.083 404.711 209.477 394.216 207.459C392.518 207.133 390.213 206.97 388.83 208.24C387.968 209.032 387.619 210.309 387.486 211.435C386.992 215.622 388.641 220.6 389.97 224.535C399.871 253.834 421.985 279.026 440.669 303.119C450.112 315.296 459.148 327.669 469.312 339.28C483.129 355.062 498.477 369.397 512.01 385.483C505.153 387.987 498.357 390.532 491.659 393.44C481.722 381.853 470.928 370.954 460.741 359.576C426.411 321.228 381.212 267.255 363.678 218.579C360.666 210.217 355.79 194.563 360.136 186.015C361.382 183.563 362.806 182.526 365.355 181.626Z"
       id="path22"
       style="fill:#00a000;fill-opacity:1" />
    <path
       fill="#9AFE8F"
       d="M779.357 125.426C820.557 125.96 842.675 139.03 871.251 167.048C904.008 199.167 917.678 218.86 918.101 266.747C914.743 264.638 911.587 261.415 908.581 258.806C899.863 251.241 891.509 243.404 883.127 235.477C876.258 228.981 869.098 222.792 862.235 216.291C848.832 203.523 835.781 190.389 823.099 176.904C807.691 160.367 793.777 142.79 779.357 125.426Z"
       id="path32"
       style="fill:#00a000;fill-opacity:1" />
    <path
       fill="#9AFE8F"
       d="M472.855 472.372C474.806 473.72 476.766 478.787 477.942 481.016C468.324 489.342 455.776 495.6 444.838 502.042C424.978 513.739 405.415 526.692 389.152 543.161C344.763 588.114 325.46 650.704 313.032 711.038C309.728 727.076 307.206 743.276 303.93 759.327C295.711 799.599 283.796 840.942 262.366 876.36C255.217 888.176 247.002 899.687 237.685 909.899C210.276 939.94 166.29 969.564 126.598 979.374C125.721 979.737 124.769 979.957 123.857 980.22C127.066 977.258 144.315 970.485 149.812 967.624C161.638 961.562 173.075 954.769 184.056 947.284C242.614 906.681 271.412 852.551 287.92 784.315C294.726 756.183 299.18 727.526 304.352 699.069C315.777 636.214 343.26 567.198 394.176 525.861C418.784 505.883 446.849 490.377 472.855 472.372Z"
       id="path33"
       style="fill:#00a000;fill-opacity:1" />
    <path
       fill="#9AFE8F"
       d="M581.114 543.192C585.023 545.818 588.808 551.593 591.894 555.258C585.196 577.297 578.273 599.589 566.937 619.758C557.321 636.867 545.057 654.949 530.019 667.696C499.752 693.35 433.957 708.741 395.02 714.596C380.553 716.772 365.574 717.026 351.251 719.899C342.181 721.718 333.074 724.908 324.144 727.4L315.709 729.994C316.137 726.193 316.987 722.431 317.734 718.681C363.349 705.639 410.685 700.071 456.059 685.873C466.511 682.602 476.94 679.362 486.919 674.799C503.646 667.152 516.79 655.961 528.812 642.193C555.406 611.741 567.19 580.546 581.114 543.192Z"
       id="path34"
       style="fill:#00a000;fill-opacity:1" />
    <path
       fill="#9AFE8F"
       d="M550.714 511.712C556.913 515.914 562.418 523.03 567.685 528.463C564.789 534.641 561.238 540.591 557.741 546.445C528.928 594.679 491.437 604.247 443.521 625.987C428.828 632.654 414.215 639.796 401.099 649.29C387.677 659.005 375.455 670.667 371.358 687.218C370.251 691.69 369.995 696.172 369.255 700.691C367.949 701.939 366.949 701.994 365.221 702.443C360.347 703.605 355.363 704.386 350.433 705.278C351.961 692.563 354.504 680.249 360.657 668.86C378.064 636.642 423.548 615.941 455.742 602.031C477.713 592.538 496.029 585.884 514.058 569.073C525.105 558.772 530.48 548.413 537.595 535.51L550.714 511.712Z"
       id="path35"
       style="fill:#00a000;fill-opacity:1" />
    <path
       fill="#9AFE8F"
       d="M517.898 683.758C522.842 680.129 527.722 676.412 532.534 672.61C523.618 709.14 510.336 746.774 483.785 774.373C473.811 784.741 462.731 793.239 451.002 801.511C451.168 825.208 451.214 847.426 441.095 869.53C426.247 901.961 402.729 917.146 370.501 929.105L368.646 928.29C398.36 915.968 423.509 896.774 436.004 866.288C444.039 846.681 443.65 827.586 442.191 806.933C423.844 818.041 400.592 828 385.663 843.524C372.529 857.181 364.587 874.604 356.781 891.564C341.437 924.904 319.034 951.145 284.545 965.53L284.045 964.595C315.177 949.646 337.349 923.604 350.993 892.316C354.137 885.106 356.854 877.682 360.249 870.585C365.783 859.017 374.063 846.427 383.049 837.284C398.897 821.156 422.068 811.959 441.218 800.347C439.671 792.468 439.245 784.348 437.972 776.407C441.464 772.627 445.467 769.265 449.548 766.145C450.415 775.649 450.494 785.353 451.014 794.892C459.344 786.504 468.197 778.616 476.276 769.981C501.819 742.681 508.66 718.677 517.898 683.758Z"
       id="path36"
       style="fill:#00a000;fill-opacity:1" />
    <path
       fill="#9AFE8F"
       d="M520.874 486.268C525.259 489.075 529.289 492.672 533.152 496.152C530.618 500.686 527.48 505.024 524.544 509.309C474.216 582.779 395.776 569.652 345.857 627.952C343.731 630.567 341.958 633.53 340.112 636.35C344.528 621.389 351.472 607.517 358.824 593.832C369.921 587.721 380.499 581.058 392.031 575.749C403.224 570.596 414.74 566.162 426.028 561.224C465.695 543.871 498.488 524.736 520.874 486.268Z"
       id="path37"
       style="fill:#00a000;fill-opacity:1" />
    <path
       fill="#9AFE8F"
       d="M469.801 414.759C480.656 416.152 492.54 423.18 501.98 428.622C549.827 456.205 604.941 508.922 636.053 554.839C644.207 566.874 651.577 578.139 655.375 592.356C653.59 596.038 651.23 598.771 648.393 601.652L647.338 602.289C646.213 601.569 645.937 598.939 645.57 597.589C643.835 591.196 641.541 585.179 638.443 579.315C611.059 527.486 520.048 440.065 463.873 422.653C465.762 419.935 467.713 417.327 469.801 414.759Z"
       id="path38"
       style="fill:#00a000;fill-opacity:1" />
    <path
       fill="#9AFE8F"
       d="M499.377 469.823C505.042 473.365 510.263 478.045 515.416 482.287C510.967 489.369 506.581 496.638 501.28 503.125C498.86 501.171 496.824 498.643 494.739 496.334C472.543 512.246 447.313 522.744 425.148 538.709C416.611 544.859 408.035 551.466 400.542 558.872C397.087 562.287 394.435 566.671 390.638 569.693C387.577 572.129 383.212 573.766 379.686 575.48C374.374 578.08 369.453 581.265 364.579 584.592C392.098 540.935 415.529 525.719 458.737 499.944C472.631 491.656 488.962 482.244 499.377 469.823Z"
       id="path39"
       style="fill:#00a000;fill-opacity:1" />
    <path
       fill="#9AFE8F"
       d="M459.765 428.654C476.314 433.48 492.73 444.674 506.77 454.471C553.811 487.298 597.963 528.07 628.245 577.21C629.437 579.144 632.512 583.759 631.995 585.935L630.131 587.025C627.813 588.196 625.353 589.059 622.93 589.986C618.544 584.569 615.575 577.959 611.735 572.136C606.215 563.765 599.577 555.948 593.264 548.159C571.273 521.031 544.565 497.446 517.302 475.808C505.781 466.663 493.992 457.394 481.277 449.939C474.475 445.952 467.522 442.777 460.193 439.926C459.861 436.146 459.498 432.448 459.765 428.654Z"
       id="path40"
       style="fill:#00a000;fill-opacity:1" />
    <path
       fill="#9AFE8F"
       d="M484.112 698.544L484.475 698.694C484.924 700.018 484.335 701.363 483.953 702.687C478.117 722.923 466.883 740.629 452.291 755.686C414.987 794.18 368.157 807.153 320.176 826.744C308.457 831.529 296.832 836.344 285.716 842.432L285.332 842.423L285.097 841.794C286.462 838.418 287.968 835.128 289.518 831.833C300.043 824.803 312.472 819.606 324.086 814.704C354.301 801.951 387.62 791.733 415.352 773.894C445.686 754.381 460.674 739.213 468.352 703.215C473.652 701.814 478.876 700.162 484.112 698.544Z"
       id="path41"
       style="fill:#00a000;fill-opacity:1" />
    <path
       fill="#9AFE8F"
       d="M619.909 470.852C623.801 473.575 627.295 477.958 630.981 481.143C641.283 490.048 652.29 498.201 661.836 507.945C653.804 519.61 644.95 531.035 637.665 543.162C637.368 543.125 637.05 543.169 636.776 543.052C635.764 542.621 628.65 532.376 627.215 530.589C617.346 518.348 606.95 506.542 596.056 495.204C602.734 486.337 611.871 478.494 619.909 470.852Z"
       id="path42"
       style="fill:#00a000;fill-opacity:1" />
    <path
       fill="#9AFE8F"
       d="M572.179 533.713C573.966 534.758 575.509 536.899 576.911 538.43C560.829 578.764 551.571 611.41 513.478 637.856C508.131 641.568 502.752 645.339 497.128 648.624C490.619 652.427 483.737 655.756 477.561 660.091C469.419 665.805 463.938 673.6 456.952 678.698C456.735 678.857 456.51 679.005 456.292 679.162C453.769 680.976 450.633 681.66 447.685 682.538C447.204 682.713 446.726 682.898 446.234 683.038C444.952 683.401 444.832 683.613 443.661 682.945C443.223 678.037 454.844 665.308 458.363 661.747C473.613 646.319 492.833 636.845 510.156 624.222C529.002 610.49 543.357 593.303 553.248 572.173C559.367 559.103 564.645 546.112 572.179 533.713Z"
       id="path43"
       style="fill:#00a000;fill-opacity:1" />
    <path
       fill="#9AFE8F"
       d="M545.134 410.334C546.932 411.032 549.326 413.4 551.002 414.597C559.446 420.626 567.96 426.36 578.387 428.148C584.373 434.098 590.244 440.073 596.68 445.546C588.588 453.914 580.138 462.37 571.294 469.946L570.494 470.489C567.315 469.573 559.306 461.296 556.27 458.737C544.591 449.028 532.589 439.716 520.282 430.816C528.269 423.709 536.833 417.073 545.134 410.334Z"
       id="path44"
       style="fill:#00a000;fill-opacity:1" />
    <path
       fill="#9AFE8F"
       d="M635.117 590.023C635.441 590.262 635.653 590.378 635.877 590.763C637.565 593.659 639.805 600.964 638.487 604.072C637.961 605.313 636.943 606.174 635.709 606.658C627.757 609.777 612.733 602.385 605.464 599.079C595.366 619.539 590.536 651.351 587.855 673.913C585.171 696.497 583.469 718.298 573.178 739.072C557.933 769.847 532.752 783.043 501.622 793.682C498.742 794.716 495.661 795.455 492.721 796.326C499.512 792.358 507.467 789.807 514.621 786.419C575.573 757.559 573.764 718.355 579.741 659.96C582.074 637.164 586.501 614.315 594.216 592.702C598.329 593.773 602.488 594.854 606.717 595.354C616.014 596.451 627.51 596.056 635.117 590.023Z"
       id="path45"
       style="fill:#00a000;fill-opacity:1" />
    <path
       fill="#9AFE8F"
       d="M134.593 895.287C144.012 881.977 152.779 868.217 160.864 854.056C168.512 840.647 175.604 826.808 184.024 813.861C201.223 787.417 223.589 766.12 250.261 749.382C263.122 741.312 278.474 732.226 292.873 727.418C292.48 730.858 292.137 734.246 291.229 737.597C280.359 743.89 268.877 749.048 258.081 755.493C221.657 777.235 198.407 804.686 175.834 839.983C163.437 859.367 151.648 879.291 136.662 896.835C136.802 895.937 136.825 895.765 136.516 894.865L134.593 895.287Z"
       id="path48"
       style="fill:#00a000;fill-opacity:1" />
    <path
       fill="#9AFE8F"
       d="M307.025 655.65L308.012 655.681C308.999 657.979 306.468 663.14 305.641 665.427C294.203 668.882 282.395 670.783 270.982 674.512C216.586 692.286 190.645 720.445 160.428 766.922C150.42 782.313 140.197 798.382 128.102 812.222C124.139 816.758 119.718 820.923 115.416 825.135L114.893 825.413C114.907 825.164 114.843 824.899 114.934 824.667C115.44 823.373 128.709 807.582 131.164 804.019C144.59 784.535 156.372 764.022 169.564 744.415C205.265 691.357 245.081 667.817 307.025 655.65Z"
       id="path49"
       style="fill:#00a000;fill-opacity:1" />
    <path
       fill="#9AFE8F"
       d="M247.566 790.951C259.726 789.334 270.909 797.84 272.599 809.989C274.289 822.139 265.851 833.373 253.711 835.136C241.468 836.915 230.117 828.389 228.412 816.135C226.708 803.881 235.302 792.581 247.566 790.951Z"
       id="path50"
       style="fill:#00a000;fill-opacity:1" />
    <path
       fill="#252525"
       d="M248.365 794.95C258.277 793.767 267.275 800.831 268.48 810.74C269.686 820.649 262.642 829.663 252.736 830.891C242.798 832.122 233.748 825.052 232.539 815.111C231.33 805.17 238.421 796.136 248.365 794.95Z"
       id="path51"
       style="fill:#000000;fill-opacity:1" />
    <path
       fill="#9AFE8F"
       d="M60.3638 973.124C68.86 969.512 77.3587 965.896 85.5747 961.673C121.862 943.021 154.883 918.047 187.424 893.658C209.367 877.213 236.631 854.761 261.701 844.304C260.02 847.908 258.375 852.682 255.373 855.359C250.992 859.265 244.868 861.999 239.887 865.138C232.38 869.869 225.066 875.005 217.819 880.121C208.027 887.033 198.672 894.471 189.073 901.637C154.571 927.396 117.889 954.62 77.138 969.492C72.3499 971.239 67.4821 972.718 62.6001 974.176L60.3638 973.124Z"
       id="path52"
       style="fill:#00a000;fill-opacity:1" />
    <path
       fill="#9AFE8F"
       d="M358.21 817.438L359.443 817.617C360.357 820.781 358.027 826.226 357.169 829.326C353.035 844.249 348.446 858.391 341.119 872.124C337.502 878.905 333.621 885.54 329.047 891.728C309.218 918.557 274.359 948.489 245.092 964.446C231.422 971.899 216.99 977.514 202.113 982.036L200.78 982.402C201.273 981.525 217.955 974.006 220.133 972.903C232.506 966.637 244.322 959.866 255.532 951.689C271.767 939.845 286.562 927.545 300.701 913.263C328.47 885.211 342.757 861.082 348.928 821.784C351.88 820.075 355.088 818.801 358.21 817.438Z"
       id="path53"
       style="fill:#00a000;fill-opacity:1" />
    <path
       fill="#9AFE8F"
       d="M666.258 514.282C667.715 515.505 672.514 528.586 674.051 531.657C677.11 537.77 680.682 543.518 684.459 549.205C678.912 559.093 670.98 573.458 664.205 582.223C663.304 583.388 662.559 584.615 661.065 584.793C657.005 571.732 650.451 560.622 641.967 549.958C650.18 538.19 658.709 526.487 666.258 514.282Z"
       id="path54"
       style="fill:#00a000;fill-opacity:1" />
    <path
       fill="#9AFE8F"
       d="M587.415 346.346C587.54 346.398 587.672 346.435 587.79 346.501C588.943 347.152 589.443 347.613 589.843 348.84C589.738 349.003 589.647 349.176 589.53 349.329C585.343 354.811 557.125 369.895 549.543 372.507C543.812 374.482 537.715 375.292 531.763 376.32C532.922 378.22 534.257 380.008 535.62 381.767C545.835 394.951 563.2 410.557 580.46 412.665C602.388 415.344 617.668 399.52 633.37 387.173C635.006 388.38 636.482 389.822 637.986 391.187C634.768 394.57 631.208 397.456 627.6 400.403C620.864 405.862 613.921 411.126 606.281 415.272C595.96 420.872 585.499 423.34 574.047 419.821C550.673 412.639 526.93 387.389 515.623 366.292C516.005 366.382 516.388 366.467 516.772 366.547C545.608 372.521 564.124 361.737 587.415 346.346Z"
       id="path55"
       style="fill:#00a000;fill-opacity:1" />
    <path
       fill="#9AFE8F"
       d="M533.455 301.457C535.261 301.552 536.389 303.129 537.576 304.329C516.713 314.34 489.383 322.902 466.57 315.196C478.328 333.413 495.721 347.397 516.74 353.41C534.151 358.391 548.76 355.424 564.392 346.811C568.029 344.806 571.394 342.24 575.068 340.345C577.026 339.335 579.488 338.705 581.601 339.571C582.482 339.932 582.336 340.119 582.645 340.922C581.547 343.898 575.342 346.758 572.569 348.442C561.438 355.261 548.334 362.336 535.019 362.924C515.417 363.789 493.762 353.906 479.532 340.849C474.618 336.34 453.48 312.862 453.566 306.505C453.577 305.657 453.599 305.931 454.364 305.297C458.171 305.575 462.181 307.469 465.826 308.639C486.193 315.175 514.07 311.572 532.867 301.771L533.455 301.457Z"
       id="path56"
       style="fill:#00a000;fill-opacity:1" />
    <path
       fill="#9AFE8F"
       d="M643.654 395.914C644.917 396.592 645.712 397.29 646.211 398.596C641.493 407.482 611.267 425.372 601.874 429.189C615.965 450.259 633.966 470.315 657.581 480.584C660.174 468.076 671.451 447.16 681.7 439.516C683.171 438.419 684.729 437.517 686.607 437.773L687.127 439.248C685.888 444.544 679.612 449.109 676.409 453.511C666.314 468.34 663.341 481.996 663.511 499.685C654.944 491.049 644.945 484.14 635.521 476.509C617.567 461.971 604.345 445.868 591.808 426.531C610.692 423.064 629.62 408.594 643.654 395.914Z"
       id="path57"
       style="fill:#00a000;fill-opacity:1" />
    <path
       fill="#9AFE8F"
       d="M738.381 497.248C739.422 497.813 739.877 498.147 740.489 499.168C740.24 504.199 734.154 511.464 731.957 516.575C724.925 532.936 724.828 549.724 731.42 566.243C739.762 587.15 754.842 598.264 774.922 607C774.414 605.932 773.94 604.848 773.501 603.75C765.688 583.908 769.651 560.885 778.002 542.015C779.908 544.276 781.569 546.442 783.058 549.003L780.466 553.059C774.919 565.826 774.403 582.001 777.037 595.526C778.018 600.567 782.3 610.688 780.884 615.338C779.982 616.306 779.516 616.725 778.141 616.808C771.509 617.208 748.109 600.353 742.791 595.398C729.499 583.013 721.645 563.241 721.16 545.221C720.719 528.848 726.922 509.233 738.381 497.248Z"
       id="path58"
       style="fill:#00a000;fill-opacity:1" />
    <path
       fill="#9AFE8F"
       d="M692.301 445.81C693.213 446.119 693.867 446.486 694.413 447.292C694.912 448.031 694.786 448.546 694.568 449.403C693.877 452.113 690.706 455.709 689.117 458.061C683.698 466.081 679.704 474.715 678.429 484.393C675.97 503.043 682.435 521.232 694.283 535.57C698.597 540.79 703.725 545.338 707.839 550.718L708.215 551.219C706.61 538.625 708.233 525.83 712.93 514.035C715.576 507.244 723.57 490.858 730.337 487.859C731.864 487.975 731.81 488.099 732.896 489.21C732.979 491.674 725.593 500.637 723.892 503.487C710.779 526.471 710.83 544.706 717.348 569.629C710.046 564.102 702.906 558.269 696.744 551.466C682.137 535.339 670.672 513.312 671.859 491.033C672.694 475.366 680.428 456.361 692.301 445.81Z"
       id="path59"
       style="fill:#00a000;fill-opacity:1" />
    <path
       fill="#9AFE8F"
       d="M523.484 388.61C529.184 395.06 534.74 401.104 541.127 406.894C532.448 413.541 524.362 420.577 516.246 427.897C511.877 425.563 507.636 422.967 503.365 420.459C495.159 415.83 486.881 412.165 478.257 408.448C490.041 397.196 508.227 393.031 523.484 388.61Z"
       id="path60"
       style="fill:#00a000;fill-opacity:1" />
    <path
       fill="#9AFE8F"
       d="M537.69 499.77L546.993 507.192C537.325 524.877 526.506 544.4 508.649 555.006C502.205 558.833 495.111 561.799 488.397 565.129C481.77 568.416 475.397 572.159 469.041 575.936C466.708 577.339 464.28 578.585 461.878 579.866C469.09 564.079 477.781 561.071 491.116 551.574C498.109 546.493 504.755 540.949 511.007 534.98C521.64 524.721 529.697 512.099 537.69 499.77Z"
       id="path61"
       style="fill:#00a000;fill-opacity:1" />
    <path
       fill="#9AFE8F"
       d="M367.588 723.236L368.044 723.333C370.109 727.335 366.217 784.428 365.02 792.97C360.529 794.819 355.77 796.293 351.195 797.954C350.186 791.675 351.448 783.918 351.415 777.486C351.325 760.017 350.806 742.534 350.509 725.065C356.158 724.193 361.899 723.782 367.588 723.236Z"
       id="path64"
       style="fill:#00a000;fill-opacity:1" />
    <path
       fill="#9AFE8F"
       d="M412.479 251.073C418.382 250.341 424.308 252.847 430.141 253.686C442.39 255.446 453.715 254.514 465.808 252.285C467.558 253.273 469.205 254.459 470.874 255.577C453.846 260.343 439.022 260.11 421.726 258.827C426.579 264.128 430.733 270.044 435.666 275.295C450.016 290.569 469.72 298.06 490.361 298.718C501.946 299.201 512.819 296.77 523.537 292.578C525.274 293.933 526.921 295.398 528.585 296.841C521.608 300.198 513.517 301.991 505.903 303.145C482.031 306.765 459.445 302.955 439.847 288.316C432.729 282.999 412.736 261.321 411.41 252.253L412.479 251.073Z"
       id="path65"
       style="fill:#00a000;fill-opacity:1" />
    <path
       fill="#9AFE8F"
       d="M875.754 136.412C875.954 136.454 876.16 136.476 876.354 136.539C883.107 138.724 907.525 163.992 910.696 170.721C910.293 171.512 909.898 172.262 909.426 173.014C907.75 175.681 902.123 184.598 899.008 185.324L897.659 184.337C885.873 171.704 873.398 159.731 860.291 148.474C865.095 143.795 870.122 140.039 875.754 136.412Z"
       id="path66"
       style="fill:#00a000;fill-opacity:1" />
    <path
       fill="#9AFE8F"
       d="M600.463 449.888C605.913 453.976 611.573 461.723 616.158 466.883C607.941 474.809 600.239 483.382 591.897 491.141C586.414 485.414 580.29 480.364 574.889 474.533C582.262 465.64 592.046 457.839 600.463 449.888Z"
       id="path69"
       style="fill:#00a000;fill-opacity:1" />
    <path
       fill="#9AFE8F"
       d="M918.291 222.329C918.735 222.651 918.67 222.59 919.203 223.075C922.524 226.093 925.049 231.451 927.32 235.361C936.847 251.767 951.632 279.641 952.617 298.263C943.659 289.376 933.675 281.304 924.439 272.662C925.578 254.484 922.587 239.713 918.291 222.329Z"
       id="path70"
       style="fill:#00a000;fill-opacity:1" />
    <path
       fill="#9AFE8F"
       d="M787.741 555.367C789.993 557.846 791.87 560.947 793.817 563.688C788.606 576.039 788.727 588.887 792.475 601.684C796.761 616.316 805.714 630.034 819.392 637.425C826.04 641.017 832.587 642.129 839.887 639.912L843.143 646.901C837.164 649.139 831.804 649.383 825.669 647.684C812.107 643.927 800.89 633.397 794.058 621.379C781.762 599.747 781.196 578.992 787.741 555.367Z"
       id="path73"
       style="fill:#00a000;fill-opacity:1" />
    <path
       fill="#9AFE8F"
       d="M757.184 96.5386C767.532 97.8485 777.458 100.61 787.144 104.461C794.719 107.472 826.409 123.063 829.296 129.813C813.089 121.964 793.05 118.081 775.132 120.105C768.832 112.539 763.086 104.421 757.184 96.5386Z"
       id="path74"
       style="fill:#00a000;fill-opacity:1" />
    <path
       fill="#9AFE8F"
       d="M969.374 71.0202C969.345 71.7348 918.61 135.601 914.595 139.99L909.498 134.684L903.235 128.942C917.871 116.345 932.276 103.424 946.685 90.5647C953.826 84.1925 961.321 76.0966 969.374 71.0202Z"
       id="path75"
       style="fill:#00a000;fill-opacity:1" />
    <path
       fill="#9AFE8F"
       d="M432.25 728.478C433.363 730.51 431.984 737.235 431.739 739.83C427.95 741.64 423.978 743.075 420.167 744.848C404.612 752.087 395.817 764.695 390.128 780.511C386.639 782.668 382.935 784.413 379.255 786.213L378.835 785.588C380.737 779.793 384.404 773.799 387.189 768.33C401.131 740.956 407.795 742.414 432.25 728.478Z"
       id="path76"
       style="fill:#00a000;fill-opacity:1" />
    <path
       fill="#9AFE8F"
       d="M417.207 645.446C418.786 646.501 419.132 652.847 419.553 654.853C421.877 665.94 426.97 676.542 431.447 686.902C428.085 688.026 422.665 690.371 419.139 689.811C412.69 679.216 407.338 666.23 403.588 654.406C407.843 651.047 412.609 648.308 417.207 645.446Z"
       id="path77"
       style="fill:#00a000;fill-opacity:1" />
    <path
       fill="#9AFE8F"
       d="M454.308 626.985L454.882 627.11C455.708 628.349 453.711 654.906 453.611 658.042C450.417 661.943 446.899 665.87 444.239 670.152C443.627 671.138 443.101 671.939 442.302 672.779L441.81 672.32C439.261 659.629 438.828 647.14 438.465 634.242L454.308 626.985Z"
       id="path78"
       style="fill:#00a000;fill-opacity:1" />
    <path
       fill="#9AFE8F"
       d="M393.908 213.739L400.628 215.885C403.318 220.303 405.974 224.581 409.683 228.228C420.527 238.89 436.79 242.707 451.53 242.682C453.049 243.758 456.784 245.714 457.205 247.404C442.994 250.945 425.552 247.872 413.095 240.343C402.519 233.951 396.802 225.607 393.908 213.739Z"
       id="path81"
       style="fill:#00a000;fill-opacity:1" />
    <path
       fill="#9AFE8F"
       d="M418.71 586.399C419.302 586.503 418.957 586.385 419.646 586.963C418.315 596.028 417.236 605.128 416.408 614.252C411.698 617.575 406.1 620.229 401.063 623.088L400.165 622.714C398.713 616.472 400.838 600.045 402.797 593.805C407.911 590.998 413.381 588.763 418.71 586.399Z"
       id="path82"
       style="fill:#00a000;fill-opacity:1" />
    <path
       fill="#9AFE8F"
       d="M454.339 706.525L455.309 706.683C455.479 709.079 453.584 712.368 453.062 714.9C451.951 720.283 451.838 725.839 450.593 731.207C448.467 740.38 442.949 746.921 435.093 751.812C435.089 749.503 435.389 747.177 435.601 744.879C435.91 738.283 437.342 730.566 438.734 724.119C441.397 722.551 444.177 721.088 446.495 719.022L446.395 718.232C444.101 716.877 441.374 717.045 439.134 715.794C438.529 714.335 438.532 713.555 438.637 712.025C440.289 709.617 451.023 707.469 454.339 706.525Z"
       id="path83"
       style="fill:#00a000;fill-opacity:1" />
    <path
       fill="#9AFE8F"
       d="M374.77 641.163L375.709 641.341L375.635 642.06C371.843 646.283 367.851 651.341 363.081 654.471C357.376 658.216 339.922 660.742 332.454 662.254C331.57 661.995 332.049 662.211 331.096 661.455C330.626 657.93 333.483 652.73 334.856 649.426C347.963 646.164 361.494 643.678 374.77 641.163Z"
       id="path84"
       style="fill:#00a000;fill-opacity:1" />
    <path
       fill="#9AFE8F"
       d="M595.911 561.223C603.217 568.282 610.491 581.015 615.144 590.074L608.239 589.962C601.466 588.991 595.292 587.074 589.016 584.38C590.97 576.607 593.693 568.94 595.911 561.223Z"
       id="path91"
       style="fill:#00a000;fill-opacity:1" />
    <path
       fill="#9AFE8F"
       d="M460.365 569.531L460.736 570.186C457.917 574.769 456.176 579.785 453.616 584.474C452.156 587.15 443.354 599.32 441.045 601.625C440.073 602.596 438.787 603.34 437.626 604.067C435.704 600.22 438.705 583.441 439.522 578.505C446.581 575.779 453.534 572.786 460.365 569.531Z"
       id="path94"
       style="fill:#00a000;fill-opacity:1" />
    <path
       fill="#9AFE8F"
       d="M486.773 612.52C489.462 617.11 490.523 623.677 491.854 628.84C487.134 632.864 481.546 635.882 476.176 638.944L475.476 639.169C474.256 637.818 473.098 621.783 472.585 618.679L486.773 612.52Z"
       id="path97"
       style="fill:#00a000;fill-opacity:1" />
    <path
       fill="#9AFE8F"
       d="M892.58 129.814C899.47 132.293 909.581 142.574 913.621 148.643L907.352 156.531C900.607 148.836 892.933 141.889 885.225 135.18C887.489 132.944 889.832 131.358 892.58 129.814Z"
       id="path101"
       style="fill:#00a000;fill-opacity:1" />
    <path
       fill="#9AFE8F"
       d="M288.753 876.816C293.74 875.375 298.957 878.212 300.459 883.18C301.96 888.148 299.188 893.401 294.238 894.963C290.982 895.991 287.425 895.189 284.925 892.862C282.426 890.536 281.371 887.045 282.163 883.723C282.955 880.402 285.473 877.763 288.753 876.816Z"
       id="path102"
       style="fill:#00a000;fill-opacity:1" />
    <path
       fill="#252525"
       d="M289.206 880.311C292.402 879.09 295.984 880.673 297.232 883.858C298.48 887.043 296.928 890.638 293.755 891.914C290.542 893.205 286.892 891.63 285.629 888.406C284.365 885.183 285.972 881.547 289.206 880.311Z"
       id="path103"
       style="fill:#000000;fill-opacity:1" />
    <path
       fill="#9AFE8F"
       d="M468.973 450.413C478.267 454.183 487.536 461.273 495.641 467.202C493.77 469.006 491.737 470.67 489.774 472.375C487.782 474.105 485.671 475.576 483.499 477.065C478.327 468.707 472.062 459.788 468.973 450.413Z"
       id="path104"
       style="fill:#00a000;fill-opacity:1" />
    <path
       fill="#9AFE8F"
       d="M483.111 573.867L484 574.014C485.022 576.326 483.289 581.585 482.741 584.144C472.828 589.06 462.425 593.292 452.205 597.522L451.361 597.325L451.572 596.28C459.406 586.362 472.032 579.642 483.111 573.867Z"
       id="path105"
       style="fill:#00a000;fill-opacity:1" />
    <path
       fill="#9AFE8F"
       d="M222.365 718.287C226.953 717.257 231.513 720.12 232.579 724.699C233.644 729.279 230.817 733.861 226.246 734.962C221.624 736.075 216.981 733.21 215.903 728.58C214.826 723.95 217.727 719.329 222.365 718.287Z"
       id="path107"
       style="fill:#00a000;fill-opacity:1" />
    <path
       fill="#252525"
       d="M222.223 721.733C224.898 720.657 227.941 721.931 229.052 724.592C230.162 727.253 228.927 730.312 226.28 731.456C224.538 732.21 222.525 731.968 221.011 730.822C219.497 729.677 218.716 727.806 218.967 725.924C219.218 724.042 220.462 722.441 222.223 721.733Z"
       id="path108"
       style="fill:#000000;fill-opacity:1" />
    <path
       fill="#9AFE8F"
       d="M204.078 823.393C208.426 821.629 213.379 823.751 215.101 828.116C216.823 832.482 214.652 837.413 210.27 839.092C205.948 840.749 201.099 838.614 199.401 834.309C197.702 830.003 199.789 825.133 204.078 823.393Z"
       id="path111"
       style="fill:#00a000;fill-opacity:1" />
    <path
       fill="#252525"
       d="M205.223 826.349C206.99 825.661 208.99 825.986 210.448 827.198C211.905 828.41 212.59 830.318 212.235 832.18C211.88 834.043 210.541 835.565 208.74 836.156C206.058 837.036 203.163 835.621 202.211 832.964C201.258 830.307 202.594 827.374 205.223 826.349Z"
       id="path112"
       style="fill:#000000;fill-opacity:1" />
    <path
       fill="#9AFE8F"
       d="M545.326 574.989L545.697 575.615C538.132 588.966 529.21 600.359 517.626 610.476L517.397 610.282C517.409 607.287 520.936 599.026 521.795 595.479C528.827 588.251 537.411 581.247 545.326 574.989Z"
       id="path113"
       style="fill:#00a000;fill-opacity:1" />
    <path
       fill="#9AFE8F"
       d="M491.748 512.541C492.629 512.396 492.122 512.411 493.267 512.647L493.309 513.438C488.517 521.395 475.481 528.762 467.719 533.849L466.84 534.092C466.293 531.23 473.603 520.977 475.132 517.792C480.292 515.391 486.276 514.083 491.748 512.541Z"
       id="path120"
       style="fill:#00a000;fill-opacity:1" />
    <path
       fill="#9AFE8F"
       d="M248.566 919.041C249.787 918.973 250.968 919.004 252.173 919.22C254.364 919.613 256.209 920.979 257.36 922.871C258.421 924.614 258.677 926.53 258.078 928.486C257.275 931.103 255.432 932.39 253.09 933.551C251.489 933.672 249.802 933.806 248.224 933.412C246.32 932.92 244.686 931.697 243.677 930.008C242.691 928.34 242.532 926.398 243.129 924.563C244.075 921.656 245.984 920.418 248.566 919.041Z"
       id="path124"
       style="fill:#00a000;fill-opacity:1" />
    <path
       fill="#252525"
       d="M248.793 922.195C251.056 921.325 253.598 922.434 254.498 924.685C255.399 926.936 254.324 929.493 252.085 930.423C250.61 931.037 248.919 930.809 247.659 929.827C246.399 928.844 245.765 927.26 246 925.68C246.235 924.1 247.302 922.768 248.793 922.195Z"
       id="path125"
       style="fill:#000000;fill-opacity:1" />
    <path
       fill="#9AFE8F"
       d="M185.468 860.062C188.039 859.316 190.813 860.02 192.717 861.902C194.622 863.783 195.359 866.548 194.645 869.128C193.931 871.708 191.877 873.7 189.276 874.335C185.372 875.287 181.423 872.945 180.387 869.062C179.351 865.179 181.608 861.181 185.468 860.062Z"
       id="path126"
       style="fill:#00a000;fill-opacity:1" />
    <path
       fill="#252525"
       d="M186.235 863.048C187.705 862.652 189.274 863.079 190.341 864.165C191.407 865.251 191.806 866.828 191.383 868.29C190.96 869.753 189.782 870.874 188.301 871.223C186.059 871.752 183.808 870.385 183.244 868.153C182.68 865.92 184.011 863.647 186.235 863.048Z"
       id="path127"
       style="fill:#000000;fill-opacity:1" />
    <path
       fill="#9AFE8F"
       d="M914.552 173.764C914.661 173.895 914.776 174.02 914.879 174.156C916.677 176.548 918.082 179.546 917.622 182.6C917.148 185.738 910.774 194.989 908.199 196.834L907.588 196.305C906.004 193.963 904.322 191.792 902.517 189.618C907.344 184.621 910.959 179.671 914.552 173.764Z"
       id="path129"
       style="fill:#00a000;fill-opacity:1" />
    <path
       fill="#9AFE8F"
       d="M864.928 128.057C867.551 129.244 869.841 130.967 872.198 132.603C866.701 135.802 861.718 139.336 856.746 143.283C854.105 141.801 851.664 139.974 849.187 138.234C854.081 134.477 859.836 131.62 864.928 128.057Z"
       id="path130"
       style="fill:#00a000;fill-opacity:1" />
    <path
       fill="#9AFE8F"
       d="M489.231 659.355C489.737 659.287 489.38 659.305 490.282 659.561C490.914 661.676 490.544 664.316 490.476 666.517C485.515 669.145 480.499 671.838 475.12 673.504C474.386 673.535 474.173 673.442 473.516 673.166L474.293 673.454L473.351 672.497C475.619 666.903 484.212 662.138 489.231 659.355Z"
       id="path133"
       style="fill:#00a000;fill-opacity:1" />
    <path
       fill="#9AFE8F"
       d="M326.533 760.142C328.231 759.386 330.206 759.62 331.68 760.753C333.153 761.885 333.888 763.733 333.595 765.568C333.302 767.403 332.027 768.93 330.274 769.547C327.711 770.449 324.892 769.166 323.887 766.641C322.883 764.115 324.05 761.247 326.533 760.142Z"
       id="path134"
       style="fill:#00a000;fill-opacity:1" />
    <path
       fill="#9AFE8F"
       d="M214.761 748.088C216.522 747.663 218.374 748.232 219.592 749.573C220.81 750.913 221.2 752.812 220.608 754.523C220.017 756.235 218.538 757.488 216.753 757.791C214.12 758.237 211.608 756.517 211.071 753.901C210.534 751.286 212.166 748.715 214.761 748.088Z"
       id="path135"
       style="fill:#00a000;fill-opacity:1" />
    <path
       fill="#9AFE8F"
       d="M460.454 531.381L461.22 531.795C461.064 534.048 460.003 536.207 459.194 538.299C455.823 541.104 451.629 543.008 447.752 545.025L447 544.844L446.981 543.936C450.583 538.515 455.093 534.939 460.454 531.381Z"
       id="path136"
       style="fill:#00a000;fill-opacity:1" />
    <path
       fill="#8DF47C"
       d="M134.593 895.287L136.516 894.865C136.825 895.765 136.802 895.937 136.662 896.835C130.76 905.761 119.79 916.514 111.299 922.668C119.85 914.071 127.171 904.86 134.593 895.287Z"
       id="path137"
       style="fill:#00a000;fill-opacity:1" />
    <path
       fill="#8DF47C"
       d="M368.646 928.29L370.501 929.105L360.832 932.224L359.873 931.519L368.646 928.29Z"
       id="path138"
       style="fill:#00a000;fill-opacity:1" />
    <path
       fill="#8DF47C"
       d="M520.464 553.425L520.803 553.76C520.34 556.14 516.947 558.461 515.116 559.991L514.814 559.176C516.306 556.911 518.454 555.22 520.464 553.425Z"
       id="path139"
       style="fill:#00a000;fill-opacity:1" />
    <path
       fill="#8DF47C"
       d="M51.7094 976.767C54.495 975.152 57.2948 974.043 60.3638 973.124L62.6001 974.176L51.7094 976.767Z"
       id="path142" />
    <path
       fill="#627662"
       d="M279.682 967.726C277.516 968.309 274.78 970.09 272.631 969.683C273.858 968.178 276.878 967.615 278.707 967.011L279.682 967.726Z"
       id="path143"
       style="fill:#00a000;fill-opacity:1" />
    <path
       fill="#89BC77"
       d="M284.045 964.595L284.545 965.53C282.917 966.245 281.296 966.977 279.682 967.726L278.707 967.011L284.045 964.595Z"
       id="path144"
       style="fill:#00a000;fill-opacity:1" />
    <path
       fill="#627662"
       d="M353.505 934.151C355.599 933.047 357.617 932.232 359.873 931.519L360.832 932.224C358.395 932.884 355.952 933.527 353.505 934.151Z"
       id="path145"
       style="fill:#00a000;fill-opacity:1" />
  </g>
  <g
     inkscape:groupmode="layer"
     id="layer1"
     inkscape:label="Layer 1" />
</svg>
